<svg width="32" height="32" viewBox="0 0 32 32" fill="none" xmlns="http://www.w3.org/2000/svg">
<path d="M23.9309 3.86337H23.0918C21.9709 2.36346 20.5429 1.23866 18.9484 0.599708C17.3538 -0.0392416 15.6476 -0.17031 13.9979 0.219407C12.3481 0.609124 10.8116 1.50619 9.53967 2.82229C8.26772 4.13838 7.30415 5.82813 6.74384 7.72518C5.89613 7.68081 5.04941 7.83664 4.25203 8.18379C3.45465 8.53095 2.72222 9.06261 2.09657 9.74844C1.47092 10.4343 0.964299 11.2608 0.605628 12.1809C0.246957 13.101 0.0432627 14.0966 0.00617519 15.1109C-0.0309124 16.1252 0.0993333 17.1383 0.389475 18.0923C0.679618 19.0464 1.12397 19.9227 1.69717 20.6713C2.27038 21.4199 2.96119 22.026 3.73019 22.4552C4.49918 22.8843 5.33129 23.128 6.17901 23.1724H23.9309C26.071 23.1724 28.1234 22.1552 29.6366 20.3447C31.1499 18.5341 32 16.0784 32 13.5179C32 10.9574 31.1499 8.50169 29.6366 6.69112C28.1234 4.88054 26.071 3.86337 23.9309 3.86337Z" fill="#4A5781"/>
<path d="M25.5 15.051C24.7432 13.7354 23.7618 12.6676 22.6336 11.9321C21.5054 11.1967 20.2614 10.8138 19 10.8138C17.7386 10.8138 16.4946 11.1967 15.3664 11.9321C14.2382 12.6676 13.2568 13.7354 12.5 15.051C10.7761 15.051 9.12279 15.9439 7.90381 17.5331C6.68482 19.1224 6 21.2779 6 23.5255C6 25.7731 6.68482 27.9286 7.90381 29.5179C9.12279 31.1071 10.7761 32 12.5 32H25.5C27.2239 32 28.8772 31.1071 30.0962 29.5179C31.3152 27.9286 32 25.7731 32 23.5255C32 21.2779 31.3152 19.1224 30.0962 17.5331C28.8772 15.9439 27.2239 15.051 25.5 15.051Z" fill="#798DD0"/>
</svg>
