<svg width="32" height="32" viewBox="0 0 32 32" fill="none" xmlns="http://www.w3.org/2000/svg">
<path fill-rule="evenodd" clip-rule="evenodd" d="M9.63855 0C10.2773 0 10.7952 0.517845 10.7952 1.15663V1.92771C10.7952 2.56649 10.2773 3.08434 9.63855 3.08434C8.99977 3.08434 8.48193 2.56649 8.48193 1.92771V1.15663C8.48193 0.517845 8.99977 0 9.63855 0ZM2.82349 2.82308C3.27518 2.37138 4.00751 2.37138 4.45921 2.82308L4.79241 3.15628C5.2441 3.60797 5.2441 4.3403 4.79241 4.792C4.34071 5.24368 3.60838 5.24368 3.1567 4.792L2.82349 4.4588C2.37179 4.00709 2.37179 3.27476 2.82349 2.82308ZM16.4534 2.82329C16.9051 3.27498 16.9051 4.00733 16.4534 4.45901L16.1201 4.79221C15.6684 5.2439 14.9362 5.2439 14.4845 4.79221C14.0328 4.34053 14.0328 3.60818 14.4845 3.1565L14.8176 2.82329C15.2693 2.37161 16.0017 2.37161 16.4534 2.82329ZM0 9.63856C0 8.99977 0.517845 8.48193 1.15663 8.48193H1.92771C2.56649 8.48193 3.08434 8.99977 3.08434 9.63856C3.08434 10.2773 2.56649 10.7952 1.92771 10.7952H1.15663C0.517845 10.7952 0 10.2773 0 9.63856ZM4.79241 14.4851C5.2441 14.9368 5.2441 15.6692 4.79241 16.1209L4.45921 16.454C4.00751 16.9057 3.27518 16.9057 2.82349 16.454C2.37179 16.0023 2.37179 15.2699 2.82349 14.8184L3.1567 14.4851C3.60838 14.0334 4.34071 14.0334 4.79241 14.4851Z" fill="#FFAC33"/>
<path d="M15.8071 10.4096C15.8071 13.3906 13.3906 15.8072 10.4096 15.8072C7.42854 15.8072 5.01196 13.3906 5.01196 10.4096C5.01196 7.4286 7.42854 5.01202 10.4096 5.01202C13.3906 5.01202 15.8071 7.4286 15.8071 10.4096Z" fill="#FFAC33"/>
<path d="M23.1877 32C28.0546 32 32.0001 28.101 32.0001 23.2912C32.0001 19.4793 29.5218 16.2394 26.0706 15.0593C25.5802 10.7084 21.8463 7.32532 17.3128 7.32532C12.4458 7.32532 8.50039 11.2243 8.50039 16.0341C8.50039 17.0979 8.69341 18.1171 9.04672 19.0595C8.6324 18.979 8.20419 18.9369 7.76603 18.9369C4.11582 18.9369 1.15674 21.8612 1.15674 25.4685C1.15674 29.0758 4.11582 32 7.76603 32H23.1877Z" fill="#798DD0"/>
</svg>
